<svg id="Retina_Vertical" data-name="Retina Vertical" xmlns="http://www.w3.org/2000/svg" viewBox="0 0 373.75 350.01" style="fill: #fff1a0"><title>Retina-Vertical-SVG</title><g id="Logo"><path d="M500.66,531.84h-.12c-104.42-.05-166.9-71.76-183.56-93.74a16.07,16.07,0,0,1,0-19.36c16.67-22,79.17-93.69,183.6-93.74v0h.12c104.33,0,166.85,71.55,183.53,93.49a16.05,16.05,0,0,1,0,19.37C667.54,459.92,604.93,531.84,500.66,531.84Zm0-190.84h-.12c-97.06.05-155.31,66.91-170.85,87.41,15.53,20.52,73.77,87.38,170.82,87.43h.11c96.9,0,155.26-67.07,170.84-87.64C655.94,407.72,597.65,341,500.7,341Z" transform="translate(-313.74 -325)"/><circle cx="141.98" cy="70.79" r="12"/><circle cx="131.33" cy="103.42" r="12"/><circle cx="141.98" cy="136.06" r="12"/><circle cx="169.71" cy="156.25" r="12"/><circle cx="204.05" cy="156.25" r="12"/><circle cx="231.81" cy="136.05" r="12"/><circle cx="231.81" cy="70.8" r="12"/><circle cx="204.05" cy="50.61" r="12"/><circle cx="169.71" cy="50.61" r="12"/><circle cx="242.43" cy="103.42" r="12"/><circle cx="187.34" cy="103.31" r="12"/></g><path d="M362.93,673.92l-18.48-32.64h-7.92v32.64h-16.8V590.16h31.44q9.72,0,16.56,3.42A23.89,23.89,0,0,1,378,602.82a25.24,25.24,0,0,1,3.42,13,24.94,24.94,0,0,1-4.8,14.94q-4.8,6.66-14.28,9.18l20,34Zm-26.4-45.24h14c4.56,0,8-1.09,10.2-3.3s3.36-5.26,3.36-9.18-1.12-6.82-3.36-8.94-5.64-3.18-10.2-3.18h-14Z" transform="translate(-313.74 -325)"/><path d="M456.91,645.72h-48.6c.4,4.8,2.08,8.57,5,11.28a15.54,15.54,0,0,0,10.92,4.08c6.25,0,10.68-2.68,13.33-8h18.12a30.3,30.3,0,0,1-11,15.78q-8.18,6.2-20,6.18a34.69,34.69,0,0,1-17.23-4.26,29.92,29.92,0,0,1-11.88-12.06,37,37,0,0,1-4.26-18,37.53,37.53,0,0,1,4.21-18.12,29.28,29.28,0,0,1,11.75-12,37.76,37.76,0,0,1,34.38-.12A28.86,28.86,0,0,1,453.26,622a35,35,0,0,1,4.14,17.22A39.58,39.58,0,0,1,456.91,645.72ZM440,634.44a13.32,13.32,0,0,0-4.68-10.38,16.58,16.58,0,0,0-11.16-3.9,15.25,15.25,0,0,0-10.5,3.78,16.56,16.56,0,0,0-5.21,10.5Z" transform="translate(-313.74 -325)"/><path d="M486.31,621.24V653.4q0,3.36,1.62,4.86t5.46,1.5h7.8v14.16H490.63q-21.24,0-21.24-20.64v-32h-7.92v-13.8h7.92V591h16.92v16.44h14.88v13.8Z" transform="translate(-313.74 -325)"/><path d="M511.57,596.7a9.85,9.85,0,0,1,0-14,11.07,11.07,0,0,1,14.76,0,9.85,9.85,0,0,1,0,14,11.07,11.07,0,0,1-14.76,0Zm15.66,10.74v66.48h-16.8V607.44Z" transform="translate(-313.74 -325)"/><path d="M597,614q7.32,7.5,7.32,20.94v39h-16.8V637.2q0-7.92-4-12.18c-2.64-2.83-6.24-4.26-10.8-4.26s-8.3,1.43-11,4.26-4,6.9-4,12.18v36.72h-16.8V607.44h16.8v8.28a23.21,23.21,0,0,1,8.58-6.78,26.69,26.69,0,0,1,11.46-2.46Q589.63,606.48,597,614Z" transform="translate(-313.74 -325)"/><path d="M617.05,622.56a29.53,29.53,0,0,1,10.92-12,29.07,29.07,0,0,1,15.42-4.2,27.2,27.2,0,0,1,13,3,26.42,26.42,0,0,1,8.94,7.56v-9.48h16.92v66.48H665.35V664.2a25,25,0,0,1-8.94,7.74A27.35,27.35,0,0,1,643.27,675a28.25,28.25,0,0,1-15.3-4.32,30.23,30.23,0,0,1-10.92-12.18,39.12,39.12,0,0,1-4-18.06A38.48,38.48,0,0,1,617.05,622.56Zm45.9,7.62a16.92,16.92,0,0,0-6.48-6.72,17.32,17.32,0,0,0-8.76-2.34,16.87,16.87,0,0,0-15.06,8.94,20.86,20.86,0,0,0-2.46,10.38,21.52,21.52,0,0,0,2.46,10.5,17.71,17.71,0,0,0,6.48,6.9,16.37,16.37,0,0,0,8.58,2.4,17.32,17.32,0,0,0,8.76-2.34,16.86,16.86,0,0,0,6.48-6.72,24.17,24.17,0,0,0,0-21Z" transform="translate(-313.74 -325)"/></svg>